<svg viewBox="0 0 24 24" fill="currentColor" xmlns="http://www.w3.org/2000/svg">
  <path d="M12 2C6.48 2 2 6.48 2 12C2 17.52 6.48 22 12 22C17.52 22 22 17.52 22 12C22 6.48 17.52 2 12 2ZM12 4C14.07 4 15.96 4.79 17.43 6.09L13.56 9.96C13.14 9.68 12.61 9.5 12 9.5C10.62 9.5 9.5 10.62 9.5 12C9.5 12.61 9.68 13.14 9.96 13.56L6.09 17.43C4.79 15.96 4 14.07 4 12C4 7.59 7.59 4 12 4ZM12 20C9.93 20 8.04 19.21 6.57 17.91L10.44 14.04C10.86 14.32 11.39 14.5 12 14.5C13.38 14.5 14.5 13.38 14.5 12C14.5 11.39 14.32 10.86 14.04 10.44L17.91 6.57C19.21 8.04 20 9.93 20 12C20 16.41 16.41 20 12 20Z"/>
</svg>

