<svg width="20" height="20" viewBox="0 0 24 24" fill="currentColor" xmlns="http://www.w3.org/2000/svg">
  <path d="M12 2C9.37 2 7.25 4.13 7.25 6.75V11.25C7.25 13.87 9.37 16 12 16C14.63 16 16.75 13.87 16.75 11.25V6.75C16.75 4.13 14.63 2 12 2Z"/>
  <path d="M19.25 11.25C19.25 15.06 16.29 18.2 12.5 18.48V20.75H15.5C15.91 20.75 16.25 21.09 16.25 21.5C16.25 21.91 15.91 22.25 15.5 22.25H8.5C8.09 22.25 7.75 21.91 7.75 21.5C7.75 21.09 8.09 20.75 8.5 20.75H11.5V18.48C7.71 18.2 4.75 15.06 4.75 11.25C4.75 10.84 5.09 10.5 5.5 10.5C5.91 10.5 6.25 10.84 6.25 11.25C6.25 14.42 8.83 17 12 17C15.17 17 17.75 14.42 17.75 11.25C17.75 10.84 18.09 10.5 18.5 10.5C18.91 10.5 19.25 10.84 19.25 11.25Z"/>
</svg>