<svg viewBox="0 0 24 24" fill="currentColor" xmlns="http://www.w3.org/2000/svg">
  <path d="M19.14 12.94C19.16 12.63 19.16 12.31 19.16 12C19.16 11.69 19.16 11.37 19.14 11.06L21.16 9.48C21.34 9.33 21.39 9.08 21.27 8.87L19.36 5.56C19.24 5.35 18.99 5.27 18.78 5.34L16.4 6.3C15.91 5.92 15.37 5.61 14.79 5.36L14.43 2.83C14.4 2.6 14.21 2.43 13.97 2.43H10.15C9.92 2.43 9.72 2.6 9.69 2.83L9.33 5.36C8.75 5.6 8.21 5.92 7.72 6.3L5.34 5.34C5.13 5.26 4.88 5.35 4.76 5.56L2.85 8.87C2.74 9.08 2.78 9.33 2.96 9.48L4.98 11.06C4.96 11.37 4.96 11.69 4.96 12C4.96 12.31 4.96 12.63 4.98 12.94L2.96 14.52C2.78 14.67 2.74 14.92 2.85 15.13L4.76 18.44C4.88 18.65 5.13 18.74 5.34 18.66L7.72 17.7C8.21 18.08 8.75 18.4 9.33 18.64L9.69 21.17C9.72 21.4 9.92 21.57 10.15 21.57H13.97C14.21 21.57 14.4 21.4 14.43 21.17L14.79 18.64C15.37 18.4 15.91 18.08 16.4 17.7L18.78 18.66C18.99 18.74 19.24 18.65 19.36 18.44L21.27 15.13C21.39 14.92 21.34 14.67 21.16 14.52L19.14 12.94ZM12.06 15.5C10.13 15.5 8.56 13.93 8.56 12C8.56 10.07 10.13 8.5 12.06 8.5C13.99 8.5 15.56 10.07 15.56 12C15.56 13.93 13.99 15.5 12.06 15.5Z"/>
</svg>

